<svg width="375" height="279" viewBox="0 0 375 279" fill="none" xmlns="http://www.w3.org/2000/svg">
<g opacity="0.2">
<mask id="mask0_1_55" style="mask-type:alpha" maskUnits="userSpaceOnUse" x="0" y="-1" width="375" height="280">
<rect y="-1" width="375" height="280" fill="url(#paint0_linear_1_55)"/>
</mask>
<g mask="url(#mask0_1_55)">
<path d="M374.671 199.88C378.314 203.523 378.314 209.43 374.671 213.073C371.028 216.716 365.122 216.716 361.479 213.073L317.716 169.31C314.073 165.667 314.073 159.761 317.716 156.118C321.359 152.475 327.266 152.475 330.909 156.118L374.671 199.88Z" fill="#F46F17"/>
<path d="M253.823 237.986C247.854 235.237 246.45 227.383 251.096 222.737C253.939 219.894 258.271 219.164 261.888 220.918L267.358 223.569C282.223 230.775 297.757 215.016 290.339 200.256L287.67 194.946C285.916 191.457 286.597 187.237 289.358 184.475C293.768 180.065 301.212 181.328 303.92 186.946L330.497 242.075C333.453 248.206 332.209 255.535 327.397 260.347C322.658 265.087 315.468 266.372 309.38 263.569L253.823 237.986Z" fill="#121212" fill-opacity="0.25"/>
<path d="M388.34 181.429C391.089 187.398 398.942 188.802 403.589 184.156C406.431 181.313 407.162 176.981 405.408 173.364L402.757 167.894C395.551 153.029 411.31 137.495 426.07 144.913L431.379 147.582C434.869 149.336 439.089 148.655 441.851 145.894C446.261 141.484 444.997 134.04 439.379 131.332L384.251 104.755C378.12 101.799 370.791 103.043 365.978 107.855C361.239 112.594 359.954 119.784 362.757 125.872L388.34 181.429Z" fill="#121212" fill-opacity="0.5"/>
<path d="M231.692 338.077C234.44 344.046 242.294 345.45 246.941 340.804C249.783 337.961 250.514 333.629 248.76 330.012L246.109 324.542C238.903 309.677 254.662 294.143 269.422 301.561L274.731 304.23C278.221 305.984 282.441 305.303 285.202 302.542C289.613 298.132 288.349 290.688 282.731 287.98L227.603 261.403C221.472 258.447 214.143 259.691 209.33 264.503C204.591 269.243 203.306 276.432 206.109 282.52L231.692 338.077Z" fill="#121212" fill-opacity="0.5"/>
<path d="M235.462 60.671C239.105 64.314 239.105 70.2205 235.462 73.8636C231.819 77.5066 225.913 77.5066 222.269 73.8636L178.507 30.1008C174.864 26.4577 174.864 20.5512 178.507 16.9082C182.15 13.2652 188.056 13.2652 191.699 16.9082L235.462 60.671Z" fill="#F46F17"/>
<path d="M78.8139 217.319C82.4569 220.962 82.4569 226.869 78.8139 230.512C75.1708 234.155 69.2643 234.155 65.6213 230.512L21.8585 186.749C18.2155 183.106 18.2155 177.199 21.8585 173.556C25.5016 169.913 31.4081 169.913 35.0511 173.556L78.8139 217.319Z" fill="#F46F17"/>
<path d="M114.613 98.7763C108.645 96.0279 107.241 88.1741 111.887 83.5278C114.73 80.685 119.061 79.9548 122.679 81.7084L128.148 84.3597C143.014 91.5655 158.548 75.8068 151.129 61.0463L148.461 55.7371C146.707 52.2478 147.387 48.0273 150.149 45.2659C154.559 40.8559 162.003 42.119 164.711 47.737L191.288 102.865C194.244 108.996 193 116.325 188.187 121.138C183.448 125.877 176.259 127.163 170.171 124.359L114.613 98.7763Z" fill="#121212" fill-opacity="0.25"/>
<path d="M249.131 42.2198C251.879 48.1883 259.733 49.5926 264.379 44.9462C267.222 42.1034 267.952 37.772 266.199 34.1543L263.547 28.6848C256.342 13.8193 272.1 -1.71466 286.861 5.704L292.17 8.37245C295.659 10.1262 299.88 9.4458 302.641 6.6844C307.051 2.27435 305.788 -5.16933 300.17 -7.87773L245.042 -34.4548C238.911 -37.4104 231.582 -36.1667 226.769 -31.3541C222.03 -26.6149 220.744 -19.4253 223.548 -13.3375L249.131 42.2198Z" fill="#121212" fill-opacity="0.5"/>
<path d="M92.4827 198.868C95.2311 204.836 103.085 206.241 107.731 201.594C110.574 198.752 111.304 194.42 109.551 190.802L106.899 185.333C99.6935 170.467 115.452 154.933 130.213 162.352L135.522 165.021C139.011 166.774 143.232 166.094 145.993 163.333C150.403 158.922 149.14 151.479 143.522 148.77L88.3937 122.193C82.2629 119.238 74.9335 120.481 70.1209 125.294C65.3818 130.033 64.0962 137.223 66.8996 143.311L92.4827 198.868Z" fill="#121212" fill-opacity="0.5"/>
<path d="M307.914 39.697C304.271 36.054 298.365 36.054 294.722 39.697C291.079 43.34 291.079 49.2465 294.722 52.8896L338.484 96.6523C342.127 100.295 348.034 100.295 351.677 96.6523C355.32 93.0093 355.32 87.1028 351.677 83.4598L307.914 39.697Z" fill="#F46F17"/>
<path d="M151.266 196.345C147.623 192.702 141.717 192.702 138.074 196.345C134.43 199.988 134.43 205.895 138.074 209.538L181.836 253.3C185.479 256.944 191.386 256.943 195.029 253.3C198.672 249.657 198.672 243.751 195.029 240.108L151.266 196.345Z" fill="#F46F17"/>
<path d="M269.809 160.546C272.557 166.514 280.411 167.918 285.057 163.272C287.9 160.429 288.63 156.098 286.877 152.48L284.226 147.011C277.02 132.145 292.778 116.611 307.539 124.03L312.848 126.698C316.337 128.452 320.558 127.772 323.319 125.01C327.729 120.6 326.466 113.156 320.848 110.448L265.72 83.871C259.589 80.9154 252.26 82.1591 247.447 86.9717C242.708 91.7109 241.422 98.9005 244.226 104.988L269.809 160.546Z" fill="#121212" fill-opacity="0.25"/>
<path d="M113.161 317.194C115.909 323.162 123.763 324.567 128.409 319.92C131.252 317.077 131.982 312.746 130.229 309.128L127.577 303.659C120.371 288.793 136.13 273.259 150.891 280.678L156.2 283.346C159.689 285.1 163.91 284.42 166.671 281.658C171.081 277.248 169.818 269.805 164.2 267.096L109.072 240.519C102.941 237.564 95.6115 238.807 90.7989 243.62C86.0597 248.359 84.7742 255.549 87.5775 261.637L113.161 317.194Z" fill="#121212" fill-opacity="0.25"/>
<path d="M169.717 182.676C163.749 179.928 162.344 172.074 166.991 167.428C169.834 164.585 174.165 163.855 177.783 165.608L183.252 168.26C198.118 175.466 213.652 159.707 206.233 144.946L203.565 139.637C201.811 136.148 202.491 131.927 205.253 129.166C209.663 124.756 217.106 126.019 219.815 131.637L246.392 186.765C249.347 192.896 248.104 200.226 243.291 205.038C238.552 209.777 231.362 211.063 225.274 208.259L169.717 182.676Z" fill="#121212" fill-opacity="0.5"/>
<path d="M12.0567 57.1358C8.4137 53.4927 2.50719 53.4927 -1.13584 57.1358C-4.77887 60.7788 -4.77887 66.6853 -1.13584 70.3283L42.6269 114.091C46.27 117.734 52.1765 117.734 55.8195 114.091C59.4625 110.448 59.4625 104.542 55.8195 100.899L12.0567 57.1358Z" fill="#F46F17"/>
<path d="M130.6 21.3363C133.348 27.3048 141.202 28.709 145.848 24.0627C148.691 21.2199 149.421 16.8885 147.667 13.2708L145.016 7.80125C137.81 -7.06424 153.569 -22.5982 168.33 -15.1795L173.639 -12.5111C177.128 -10.7574 181.349 -11.4377 184.11 -14.1991C188.52 -18.6092 187.257 -26.0529 181.639 -28.7613L126.51 -55.3384C120.38 -58.294 113.05 -57.0503 108.238 -52.2377C103.499 -47.4985 102.213 -40.3088 105.016 -34.221L130.6 21.3363Z" fill="#121212" fill-opacity="0.25"/>
<path d="M-26.0486 177.984C-23.3002 183.953 -15.4464 185.357 -10.8001 180.711C-7.95732 177.868 -7.22709 173.537 -8.98073 169.919L-11.632 164.449C-18.8379 149.584 -3.0791 134.05 11.6813 141.469L16.9906 144.137C20.4799 145.891 24.7003 145.21 27.4617 142.449C31.8718 138.039 30.6087 130.595 24.9907 127.887L-30.1377 101.31C-36.2685 98.3542 -43.5978 99.5979 -48.4104 104.411C-53.1496 109.15 -54.4351 116.339 -51.6318 122.427L-26.0486 177.984Z" fill="#121212" fill-opacity="0.25"/>
<path d="M30.508 43.467C24.5395 40.7186 23.1352 32.8648 27.7815 28.2185C30.6243 25.3757 34.9558 24.6454 38.5735 26.3991L44.043 29.0503C58.9085 36.2562 74.4424 20.4974 67.0238 5.737L64.3553 0.427744C62.6016 -3.06153 63.282 -7.282 66.0434 -10.0434C70.4534 -14.4534 77.8971 -13.1903 80.6055 -7.57234L107.183 47.5561C110.138 53.6868 108.895 61.0162 104.082 65.8288C99.3427 70.568 92.1531 71.8535 86.0653 69.0501L30.508 43.467Z" fill="#121212" fill-opacity="0.5"/>
</g>
</g>
<defs>
<linearGradient id="paint0_linear_1_55" x1="375" y1="-1.00001" x2="-8.42214e-06" y2="279" gradientUnits="userSpaceOnUse">
<stop stop-color="#D9D9D9"/>
<stop offset="0.610726" stop-color="#D9D9D9" stop-opacity="0"/>
</linearGradient>
</defs>
</svg>
